<svg xmlns="http://www.w3.org/2000/svg" viewBox="0 0 24 24" fill="#F7DF1E">
  <rect width="24" height="24" fill="#000"/>
  <path d="M6.906 6.906h2.188v6.563c0 2.813-1.5 4.125-3.656 4.125-.594 0-1.219-.094-1.719-.25l.281-1.813c.375.125.781.188 1.156.188.813 0 1.219-.438 1.219-1.375V6.906h.531zm7.313 0h2.188v10.688h-2.188v-1.125c-.563.844-1.438 1.313-2.5 1.313-1.875 0-3.219-1.5-3.219-3.906s1.344-3.906 3.219-3.906c1.063 0 1.938.469 2.5 1.313V6.906zm-2.031 6.469c-.875 0-1.5-.75-1.5-1.875s.625-1.875 1.5-1.875 1.5.75 1.5 1.875-.625 1.875-1.5 1.875z"/>
</svg>
