<svg xmlns="http://www.w3.org/2000/svg" viewBox="0 0 24 24" fill="#3776AB">
  <path d="M14.25.18l.9.2.73.26.59.3.45.32.34.34.25.34.16.33.1.3.04.26.02.2-.01.13V8.5l-.05.63-.13.55-.21.46-.26.38-.3.31-.33.25-.35.19-.35.14-.33.1-.3.07-.26.04-.21.02H8.77l-.69.05-.59.14-.5.22-.41.27-.33.32-.27.35-.2.36-.15.37-.1.35-.07.32-.04.27-.02.21v3.06H3.17l-.21-.03-.28-.07-.32-.12-.35-.18-.36-.26-.36-.36-.35-.46-.32-.59-.28-.73-.21-.88-.14-1.05-.05-1.23.06-1.22.16-1.04.24-.87.32-.71.36-.57.4-.44.42-.33.42-.24.4-.16.36-.1.32-.05.26-.02.21-.01h5.84l.69-.05.59-.14.5-.21.41-.28.33-.32.27-.35.2-.36.15-.36.1-.35.07-.32.04-.28.02-.21V6.07h2.09l.14.01zm-6.47 14.25v-.46l.01-.32.03-.29.06-.27.08-.26.11-.23.13-.21.16-.19.18-.18.21-.16.23-.14.25-.13.27-.11.29-.09.31-.08.33-.07.35-.05.37-.04.39-.03.41-.02.43-.01.45-.01.47.01.49.02.51.04.53.05.55.07.57.09.59.1.61.12.63.14.65.16.67.18.69.2.71.22.73.24.75.26.77.28.79.3.81.32.83.34.85.36.87.38.89.4.91.42.93.44.95.46.97.48.99.5 1.01.52 1.03.54 1.05.56 1.07.58 1.09.6 1.11.62 1.13.64 1.15.66 1.17.68 1.19.7 1.21.72 1.23.74 1.25.76 1.27.78 1.29.8 1.31.82 1.33.84 1.35.86 1.37.88 1.39.9 1.41.92 1.43.94 1.45.96 1.47.98 1.49 1 1.51 1.02 1.53 1.04 1.55 1.06 1.57 1.08 1.59 1.1 1.61 1.12 1.63 1.14 1.65 1.16 1.67 1.18 1.69 1.2 1.71 1.22 1.73 1.24 1.75 1.26 1.77 1.28 1.79 1.3 1.81 1.32 1.83 1.34 1.85 1.36 1.87 1.38 1.89 1.4 1.91 1.42 1.93 1.44 1.95 1.46 1.97 1.48 1.99 1.5z"/>
</svg>
