<svg xmlns="http://www.w3.org/2000/svg" viewBox="0 0 24 24" fill="#3178C6">
  <rect width="9.849" height="9.849" x="7.075" y="7.075" fill="#fff" stroke="#3178c6" stroke-width=".15"/>
  <path d="M8.56 16.3c0 .81-.45 1.18-1.1 1.18-.58 0-.86-.36-.86-.86h-.49c0 .8.42 1.26 1.35 1.26.82 0 1.59-.41 1.59-1.59v-4.13h-.49v4.14zm2.43.19c0 .74-.42 1.18-1.1 1.18-.64 0-.99-.42-.99-.99v-.09h-.49v.09c0 .82.45 1.4 1.48 1.4.93 0 1.6-.5 1.6-1.6v-4.13h-.5v4.14z"/>
  <path d="M8.29 11.73h.49v.73c.14-.45.47-.82 1.01-.82.13 0 .25.02.34.05l-.08.47c-.08-.02-.16-.03-.26-.03-.63 0-.99.46-.99 1.09v1.78h-.51v-3.27zm3.17 0h.51v3.27h-.51v-3.27zm.26-1.19c.17 0 .31.14.31.31s-.14.31-.31.31-.31-.14-.31-.31.14-.31.31-.31z"/>
</svg>
